# xmcd
#
# Track frame offsets: 
#        150
#        14778
#        25155
#        37570
#        48704
#        58060
#        70081
#        78507
#        85115
#        100923
#        112229
#        124325
#        129504
#        136451
#
# Disc length: 2027 seconds
#
# Revision: 0
# Processed by: cddbd v1.5.2PL0 Copyright (c) Steve Scherf et al.
# Submitted via: ExactAudioCopy v1.1
#
DISCID=c307e90e
DTITLE=Katastroof - Karstekinnekes
DYEAR=2018
DGENRE=Folklore
TTITLE0=Karsmis Van Mijn Kloten (1988)
TTITLE1=Karsmis Kan Toch Zalig Zijn
TTITLE2=Hoow Hoow Hoow
TTITLE3=Jef En Marie
TTITLE4=De Herderkes Lagen Bij Nachte
TTITLE5=Karsmislieke
TTITLE6=Het Is Karsmis
TTITLE7=Miljaerdedzju
TTITLE8=Karsmis Van Mijn Kloten (1997)
TTITLE9=Stille Nacht
TTITLE10=Onnozel Kindere
TTITLE11=Nievejoarke Zoete
TTITLE12=Drij Keuninge
TTITLE13=Karsmis Van Mijn Kloten (Instr.)
EXTD=
EXTT0=
EXTT1=
EXTT2=
EXTT3=
EXTT4=
EXTT5=
EXTT6=
EXTT7=
EXTT8=
EXTT9=
EXTT10=
EXTT11=
EXTT12=
EXTT13=
PLAYORDER=
